# xmcd
#
# Track frame offsets:
#	150
#	11610
#	29057
#	40687
#	49740
#	59667
#	69150
#	93622
#	106122
#	128152
#	142850
#	152102
#	163387
#	177582
#	189765
#	201977
#	211715
#	227940
#	241365
#	257640
#
# Disc length: 3701 seconds
#
# Revision: 1
# Processed by: cddbd v1.5.2PL0 Copyright (c) Steve Scherf et al.
# Submitted via: audiograbber 1.83.01
#
DISCID=1a0e7314
DTITLE=Jokkmokks-Jokke - Musik Vi Minns...
DYEAR=2003
DGENRE=Svenskt
TTITLE0=Gulli Gullan - (1963)
TTITLE1=Renvaktarens Sång - (1966)
TTITLE2=Forsarna Dåna - (1963)
TTITLE3=Skogshuggarens Vals - (1966)
TTITLE4=Vildmarken Sjunger - (1974)
TTITLE5=Jag Är Så Glad - (1974)
TTITLE6=Löftena Kunne Ej Svika - (1976)
TTITLE7=Jag Är Fri - (1966)
TTITLE8=Pensionärsminnen - (1967)
TTITLE9=Forsen Har Tystnat - (1961)
TTITLE10=Jag Sjunger Av Glädje Var Dag - (1962)
TTITLE11=Tjosan! (Blommor I Geväret) - (1966)
TTITLE12=Livet Försvinner Så Snabbt Som En Dröm - (1972)
TTITLE13=Tillbaka Till Min Hembygd - (1971)
TTITLE14=Vi Bor Ej Här - (1971)
TTITLE15=Flottarens Visa - (1974)
TTITLE16=Jag Kysser Lilla Vännen - (1960)
TTITLE17=När Det Brinner I Snön - (1974)
TTITLE18=Jaktfalkens Sång - (1969)
TTITLE19=Rallarsving (Det Var Vi Som Bygdgde Folkets Järnväg) - (1989)
EXTD=YEAR: 2003
EXTT0=
EXTT1=
EXTT2=
EXTT3=
EXTT4=
EXTT5=
EXTT6=
EXTT7=
EXTT8=
EXTT9=
EXTT10=
EXTT11=
EXTT12=
EXTT13=
EXTT14=
EXTT15=
EXTT16=
EXTT17=
EXTT18=
EXTT19=
PLAYORDER=
